<?xml version="1.0" encoding="UTF-8"?>
<svg version="1.1" xmlns="http://www.w3.org/2000/svg" width="1254" height="1254">
<path d="M0 0 C0.33 0 0.66 0 1 0 C1.17539307 1.04003174 1.35078613 2.08006348 1.53149414 3.15161133 C7.94435392 47.30857448 7.94435392 47.30857448 25 88 C28.75456567 90.50304378 30.54745934 90.45280074 35 90 C46.41660561 85.00523505 50.86080345 69.18912864 55.09960938 58.39355469 C56.9182799 53.55888932 58.48603782 48.65068714 59.9921875 43.7109375 C61 41 61 41 63 40 C63.03963867 40.91064209 63.07927734 41.82128418 63.12011719 42.75952148 C62.82479828 73.79627097 62.82479828 73.79627097 76.1875 100 C85.34497031 103.25598944 94.44128516 100.02800749 102.8984375 96.12353516 C106.97744088 94.16766916 110.9976754 92.10773308 115 90 C114.38256868 94.24822267 112.89631075 97.48231333 110.90234375 101.26953125 C110.59214798 101.86343658 110.28195221 102.45734192 109.96235657 103.06924438 C108.95962 104.98663012 107.94852519 106.89947414 106.9375 108.8125 C105.90482771 110.78338541 104.87444819 112.75545787 103.84420776 114.72761536 C103.16646726 116.02468654 102.48802531 117.32139145 101.80886841 118.61772156 C98.10316977 125.69509613 94.53967647 132.83854117 91 140 C90.0009167 142.00045809 89.00120609 144.0006035 88 146 C85.69 145.67 83.38 145.34 81 145 C82.55272851 150.05462685 84.14330536 154.51090843 87 159 C87 159.66 87 160.32 87 161 C87.57468018 161.09796875 88.14936035 161.1959375 88.74145508 161.296875 C95.93413094 162.61874909 102.76016532 164.67586494 109.6875 167 C111.45492554 167.59276733 111.45492554 167.59276733 113.25805664 168.19750977 C124.80760638 172.15240969 135.95080279 176.82056265 147 182 C147.85110352 182.39799805 148.70220703 182.79599609 149.57910156 183.20605469 C157.53824796 186.96839218 165.30781792 190.8725649 172.75 195.58984375 C173.71929443 196.19658936 174.68858887 196.80333496 175.68725586 197.4284668 C177.55313149 198.61054187 179.40183466 199.82034178 181.22875977 201.06176758 C186.04705383 204.11803619 189.08013979 205.4545693 194.80859375 204.453125 C196.54839253 204.0034124 198.28090236 203.52330157 200 203 C201.0003125 202.7628125 202.000625 202.525625 203.03125 202.28125 C218.01922796 197.538219 232.25734772 189.42960005 244 179 C244.79929932 178.29133789 244.79929932 178.29133789 245.61474609 177.56835938 C259.42496514 165.07242445 272.6695599 148.24403545 277.4375 129.9375 C279.1564369 123.48074326 283.32647265 114.42537906 289.0234375 110.6640625 C291 110 291 110 294.6875 109.375 C301.69978394 107.61541202 306.06746145 102.855821 310.01953125 97.015625 C318.67231142 80.91234569 318.2855951 60.90939181 319 43 C323.67770758 44.84122532 324.81872036 47.73811059 326.89453125 52.11328125 C328.64242947 56.67758084 329.31846866 61.16732324 330 66 C331.65 62.04 333.3 58.08 335 54 C335.99 54 336.98 54 338 54 C345.32384448 61.95676931 344.55059509 74.19118965 344.28515625 84.30078125 C343.86538418 93.20381312 341.10960759 99.76980428 336 107 C345.30816535 107 353.77312745 102.48681004 361 97 C362.35232589 96.03907085 363.70635292 95.08052878 365.0625 94.125 C366.5165625 93.073125 366.5165625 93.073125 368 92 C370.21858113 96.43716226 369.51514103 102.58248776 368.50390625 107.328125 C366.94104078 111.95491319 364.91513923 114.96376958 361 118 C359.05308784 118.96099363 357.09322957 119.89595864 355.125 120.8125 C350.02843123 123.2302625 347.21409278 125.6585209 343.7734375 130.0390625 C337.94082485 136.48833904 329.29791536 139.84066507 320.75 140.37109375 C319.16702043 140.41121997 317.58347993 140.43242678 316 140.4375 C314.72721191 140.44330078 314.72721191 140.44330078 313.42871094 140.44921875 C302.68749539 140.26234729 292.36132741 137.65096564 282 135 C280.76912384 139.40604284 281.28841818 142.77752399 282.15234375 147.23828125 C282.28712128 147.94281433 282.4218988 148.64734741 282.5607605 149.37322998 C283.00831804 151.68870966 283.47162178 154.00064115 283.9375 156.3125 C284.09616547 157.11243378 284.25483093 157.91236755 284.41830444 158.73654175 C293.5651536 204.75410967 306.13807549 251.00274988 325 294 C325.41762604 294.96524094 325.41762604 294.96524094 325.84368896 295.94998169 C330.61220903 306.97006125 335.79599204 317.71077408 341.26773071 328.39712524 C354.57416666 354.47911059 365.05923069 380.55411504 368 410 C368.10957031 410.96292969 368.21914063 411.92585938 368.33203125 412.91796875 C368.82856615 418.03558844 369.02575165 423.05432278 368.84765625 428.19140625 C368.48095851 440.01284999 369.5435418 449.72141359 373.1484375 460.9609375 C381.31982942 486.66142585 386.00952536 513.71934781 389.1875 540.4375 C389.27253784 541.15075439 389.35757568 541.86400879 389.44519043 542.59887695 C391.769674 562.32225099 392.24417707 581.8414167 392.25 601.6875 C392.25044186 602.37693947 392.25088371 603.06637894 392.25133896 603.77671051 C392.2616952 634.62320706 390.30078401 664.55961984 385.18359375 694.99609375 C384.98789795 696.16672363 384.79220215 697.33735352 384.59057617 698.54345703 C384.19570167 700.85459104 383.78428872 703.16295802 383.35668945 705.46826172 C382.18508397 712.13591159 381.86366913 717.63707901 383.3125 724.25 C383.60276639 725.71304672 383.89052934 727.17659235 384.17578125 728.640625 C384.31741699 729.36701172 384.45905273 730.09339844 384.60498047 730.84179688 C386.25047822 739.83203182 386.24250456 748.88744515 386.25 758 C386.25101212 759.10615158 386.25101212 759.10615158 386.25204468 760.23464966 C386.23619353 771.13772239 385.73713127 781.3950015 383 792 C382.66760153 793.42309136 382.33558583 794.84627217 382.00390625 796.26953125 C375.82787646 821.50840759 363.17687806 845.60604885 346.37255859 865.38330078 C344.95552085 867.05239077 343.56508487 868.74137717 342.17578125 870.43359375 C332.37956557 882.24212089 321.71577859 893.41635397 309.640625 902.9140625 C306.87709213 905.09708995 304.22834902 907.38652976 301.5625 909.6875 C291.26996325 918.27128875 280.14867808 926.02412885 268.60644531 932.82885742 C260.71143312 937.49524154 254.54945527 942.92195866 248.28125 949.60546875 C244.75023749 953.34482287 240.91935484 956.67586552 237 960 C236.36030273 960.5458374 235.72060547 961.0916748 235.06152344 961.65405273 C171.49126578 1015.54392812 91.04328481 1051.77024228 7 1054 C5.87392334 1054.03287109 5.87392334 1054.03287109 4.72509766 1054.06640625 C-60.11031298 1055.69646057 -128.39685726 1037.27120891 -183.17724609 1002.18994141 C-188.42683364 998.91930938 -193.06629375 996.43373445 -199.01953125 994.63671875 C-200.0403479 994.32729843 -200.0403479 994.32729843 -201.08178711 994.0116272 C-208.84328769 991.69074617 -216.67209976 989.60465004 -224.49365234 987.49755859 C-273.82998052 974.19860587 -321.97076545 958.2400337 -361 924 C-362.29051446 922.93610083 -363.58195049 921.87331667 -364.875 920.8125 C-368.65347806 917.55263658 -371.80743835 913.82310917 -375 910 C-375.71285156 909.175 -376.42570312 908.35 -377.16015625 907.5 C-400.04283357 880.49608577 -409.05662711 847.98650578 -407 813 C-405.2862805 793.28669761 -399.15085557 774.45192621 -392 756.125 C-391.38970908 754.53941473 -390.78033271 752.95347715 -390.171875 751.3671875 C-389.8732959 750.59107117 -389.5747168 749.81495483 -389.26708984 749.01531982 C-388.67750898 747.48203041 -388.08926833 745.94822492 -387.50244141 744.41387939 C-386.201328 741.02932933 -384.86372425 737.68742168 -383.4140625 734.36230469 C-380.25726671 726.97828028 -379.43653689 721.86796481 -381 714 C-381.19803223 712.9186377 -381.39606445 711.83727539 -381.60009766 710.72314453 C-382.18054649 707.66086416 -382.79045492 704.60610442 -383.41177368 701.5519104 C-388.46983941 676.4410851 -391.6687399 650.62887016 -392 625 C-392.00988953 624.31440002 -392.01977905 623.62880005 -392.02996826 622.92242432 C-392.58296544 583.51847893 -390.56452416 544.72616815 -383.25 505.9375 C-381.30167021 495.57491526 -380.19853943 486.11723172 -381.24023438 475.56689453 C-382.03508017 467.12963538 -382.21952974 458.74358671 -382.24023438 450.27539062 C-382.24990082 447.89937784 -382.28101929 445.52424743 -382.3125 443.1484375 C-382.41412345 428.61929 -380.75309196 414.38342688 -375.875 400.625 C-375.5756958 399.75762207 -375.2763916 398.89024414 -374.96801758 397.99658203 C-369.49942299 382.5583081 -362.14846313 368.05946189 -354.41699219 353.65625 C-350.01762792 345.40933697 -345.73756088 337.09842635 -341.4453125 328.79541016 C-340.57216045 327.1066279 -339.6975858 325.41857865 -338.8203125 323.73193359 C-327.665948 302.24615347 -318.67277457 279.94479381 -311 257 C-310.76561218 256.30154968 -310.53122437 255.60309937 -310.28973389 254.88348389 C-302.36882355 231.23044431 -295.79169151 207.38410266 -289.99169922 183.12792969 C-288.70252649 177.74161513 -287.35728267 172.36951357 -286 167 C-286.77633789 166.85449707 -287.55267578 166.70899414 -288.35253906 166.55908203 C-297.77312182 164.56967457 -307.32728221 157.9544935 -313 150.25 C-315 147 -315 147 -316 144 C-320.52295594 140.78384967 -325.18585757 138.27673359 -330.6875 137.4375 C-336.48613165 138.4221733 -341.07384137 140.17590455 -345.8125 143.6875 C-349 146 -349 146 -352 146 C-351.00868493 138.03034861 -349.46304576 130.65730577 -346.8046875 123.0703125 C-344.75750801 115.2592296 -346.9949278 108.66902577 -349.22265625 101.203125 C-350.74585982 95.82404039 -351.78694112 90.60287899 -351 85 C-349.125 81.9375 -349.125 81.9375 -347 80 C-346.34 80 -345.68 80 -345 80 C-344.61070312 80.79921875 -344.22140625 81.5984375 -343.8203125 82.421875 C-339.47277277 90.9566765 -334.3949315 97.85877871 -328 105 C-327.79246094 104.07960938 -327.58492188 103.15921875 -327.37109375 102.2109375 C-323.61596162 86.7819009 -317.36190336 75.05801888 -306 64 C-305.36964844 63.37222656 -304.73929687 62.74445313 -304.08984375 62.09765625 C-299.78351157 58.0967377 -294.6067458 54.81182622 -289 53 C-287.35 53.33 -285.7 53.66 -284 54 C-284 58.62 -284 63.24 -284 68 C-283.030625 66.783125 -282.06125 65.56625 -281.0625 64.3125 C-277.32638392 60.02852168 -273.28082997 57.12870665 -268 55 C-267.01 55 -266.02 55 -265 55 C-265.60804671 59.59522921 -267.51746796 63.28871547 -269.67578125 67.3203125 C-270.04221237 68.01961884 -270.40864349 68.71892517 -270.78617859 69.43942261 C-272.34452291 72.41327941 -273.91719519 75.37946973 -275.48999023 78.34570312 C-283.96397436 93.90778962 -283.96397436 93.90778962 -288 111 C-287.40832031 111.07476562 -286.81664062 111.14953125 -286.20703125 111.2265625 C-281.88107167 111.94637959 -278.87247687 112.52591293 -276 116 C-273.56753357 119.64869964 -272.86153498 121.26042767 -272.875 125.5625 C-272.87242187 126.36816406 -272.86984375 127.17382812 -272.8671875 128.00390625 C-273 131 -273 131 -273.37646484 133.08129883 C-274.43061694 139.27328507 -273.42164473 142.46243145 -269.875 147.5625 C-269.43067627 148.23651855 -268.98635254 148.91053711 -268.52856445 149.60498047 C-263.63988868 156.85286793 -258.10260897 163.6101653 -252.45654297 170.27563477 C-251.06555992 171.92238524 -249.69831731 173.58666589 -248.33203125 175.25390625 C-236.23508335 189.49872094 -212.29579978 205.67822026 -193.47753906 207.28344727 C-188.12548436 206.67113592 -183.83347753 203.21836841 -179.4375 200.3125 C-177.21125145 198.91253723 -174.98067136 197.51944196 -172.74609375 196.1328125 C-172.18223969 195.7811351 -171.61838562 195.4294577 -171.03744507 195.06712341 C-150.74445853 182.4951214 -128.18735758 173.63268458 -105.625 166.0625 C-104.76052246 165.77173584 -103.89604492 165.48097168 -103.00537109 165.18139648 C-98.49936568 163.70307025 -94.1087701 162.60773652 -89.4375 161.75 C-86.1230647 160.92402168 -85.28876328 160.46539259 -83.4609375 157.51953125 C-81.77538864 153.17952958 -81 149.67018933 -81 145 C-83.31 145.33 -85.62 145.66 -88 146 C-94.24152915 134.62721371 -100.01012112 123.03729933 -105.58081055 111.32391357 C-106.31929429 109.77318732 -107.06116611 108.22407005 -107.80639648 106.67657471 C-108.86416154 104.47654336 -109.90847009 102.2706223 -110.94921875 100.0625 C-111.43439217 99.06046036 -111.43439217 99.06046036 -111.92936707 98.03817749 C-114.11447562 93.34342685 -114.11447562 93.34342685 -113 90 C-111.97261719 90.54269531 -110.94523437 91.08539063 -109.88671875 91.64453125 C-95.21714999 99.60003819 -95.21714999 99.60003819 -78.93359375 100.62890625 C-74.33089226 99.13186597 -72.41538072 95.65453931 -69.9375 91.75 C-62.71250766 75.84336365 -62.46250263 57.14396802 -61 40 C-58.61182772 42.38817228 -58.38019506 43.81153682 -57.58984375 47.06640625 C-54.980233 57.33860145 -52.43737438 67.34641055 -47.4375 76.75 C-47.0861499 77.4210376 -46.7347998 78.0920752 -46.37280273 78.78344727 C-43.58712115 83.72661015 -40.16105953 87.41947023 -35 90 C-30.74076793 90.49144985 -28.5870003 90.35220018 -24.875 88.125 C-5.3420667 69.31550867 -3.96743036 25.53534036 0 0 Z M0 60 C-7.79617583 68.24273483 -15.11557546 79.23698668 -15 91 C-12.50361435 100.47217299 -7.32480739 113.45012841 1 119 C6.5513375 112.49606612 10.52659105 105.80228657 14 98 C14.42410156 97.19949219 14.84820313 96.39898437 15.28515625 95.57421875 C17.48128618 90.60578791 17.10612134 87.28761886 15.1496582 82.20605469 C11.60525552 74.00727898 6.91349145 66.70026499 1 60 C0.67 60 0.34 60 0 60 Z M55 84 C46.43851455 92.34471988 46.43851455 92.34471988 42.5 103.0625 C42.79591263 109.49585981 44.33914973 117.93906962 48.63671875 122.8828125 C49.08660156 123.25148437 49.53648437 123.62015625 50 124 C54.21090044 121.81738668 56.47498564 119.42927578 59.1875 115.5625 C59.86167969 114.61503906 60.53585937 113.66757813 61.23046875 112.69140625 C61.81441406 111.80324219 62.39835937 110.91507813 63 110 C63.42925781 109.36964844 63.85851562 108.73929688 64.30078125 108.08984375 C66.16607952 102.51479028 63.31359202 96.73171472 61.125 91.625 C60.86847656 90.99722656 60.61195313 90.36945313 60.34765625 89.72265625 C59.50809894 87.69602061 59.50809894 87.69602061 58 85 C57.01 84.67 56.02 84.34 55 84 Z M-57 83 C-62.69181854 94.47363555 -62.69181854 94.47363555 -64 107 C-61.13706855 112.94862701 -57.17180874 118.83382074 -52 123 C-51.01 123 -50.02 123 -49 123 C-46.46690767 118.35796103 -44.53484401 114.34844008 -44 109 C-46.15266842 111.15266842 -46.93474462 112.84773744 -48.125 115.625 C-48.47820312 116.44226563 -48.83140625 117.25953125 -49.1953125 118.1015625 C-49.46085937 118.72804687 -49.72640625 119.35453125 -50 120 C-53.47132095 118.59070303 -54.88093274 117.09394917 -56.75 113.875 C-57.39195312 112.78832031 -57.39195312 112.78832031 -58.046875 111.6796875 C-58.36140625 111.12539062 -58.6759375 110.57109375 -59 110 C-58.51789063 110.6496875 -58.03578125 111.299375 -57.5390625 111.96875 C-56.59160156 113.22171875 -56.59160156 113.22171875 -55.625 114.5 C-54.99851562 115.3353125 -54.37203125 116.170625 -53.7265625 117.03125 C-53.15679688 117.6809375 -52.58703125 118.330625 -52 119 C-51.34 119 -50.68 119 -50 119 C-47.69 113.39 -45.38 107.78 -43 102 C-44.4025 100.22625 -45.805 98.4525 -47.25 96.625 C-48.43335938 95.12839844 -48.43335938 95.12839844 -49.640625 93.6015625 C-51.97716863 90.70965719 -51.97716863 90.70965719 -56 89 C-57.32 91.64 -58.64 94.28 -60 97 C-58.68 93.7 -57.36 90.4 -56 87 C-51.8575633 88.38081223 -50.67796901 90.59825558 -48 94 C-48 90.25983417 -48.9341591 89.54723807 -51.375 86.8125 C-52.00148438 86.09707031 -52.62796875 85.38164063 -53.2734375 84.64453125 C-54.84396151 82.77010131 -54.84396151 82.77010131 -57 83 Z M-29 104 C-30.77195874 106.28643812 -30.77195874 106.28643812 -32 109 C-31.67 109.99 -31.34 110.98 -31 112 C-30.34 110.35 -29.68 108.7 -29 107 C-28.2575 107.763125 -27.515 108.52625 -26.75 109.3125 C-24.5736677 111.4393702 -22.47832204 113.2559956 -20 115 C-21.48868707 110.39860359 -23.74629855 107.49772906 -27 104 C-27.66 104 -28.32 104 -29 104 Z M28 104 C23.52391504 108.52307798 19.75634637 113.25761174 17 119 C17.33 119.66 17.66 120.32 18 121 C20.97 116.71 23.94 112.42 27 108 C30 109 30 109 31.16796875 110.84765625 C31.50441406 111.57855469 31.84085938 112.30945313 32.1875 113.0625 C32.53167969 113.79597656 32.87585938 114.52945313 33.23046875 115.28515625 C33.48441406 115.85105469 33.73835938 116.41695312 34 117 C35.37112616 114.04166788 35.37112616 114.04166788 33.8203125 111.51953125 C33.26085937 110.62621094 32.70140625 109.73289062 32.125 108.8125 C31.57070313 107.91144531 31.01640625 107.01039062 30.4453125 106.08203125 C29.96835937 105.39496094 29.49140625 104.70789063 29 104 C28.67 104 28.34 104 28 104 Z M-101 108 C-101.85471747 109.6384041 -101.85471747 109.6384041 -102 112 C-100.94608774 114.53857885 -99.86034426 116.84495527 -98.5625 119.25 C-98.05493164 120.22453125 -98.05493164 120.22453125 -97.53710938 121.21875 C-96.70213113 122.81814494 -95.85246886 124.40985859 -95 126 C-94.34 125.67 -93.68 125.34 -93 125 C-93 126.66666667 -93 128.33333333 -93 130 C-92.01 129.67 -91.02 129.34 -90 129 C-88.86349529 122.55195027 -88.86349529 122.55195027 -90 116.25 C-92.72438792 113.18506359 -95.63521504 110.35940343 -99 108 C-99.66 108 -100.32 108 -101 108 Z M94.875 112.375 C94.17117188 113.00148438 93.46734375 113.62796875 92.7421875 114.2734375 C90.41241755 116.58231265 90.01696831 117.50995521 89.90234375 120.8203125 C89.91394531 121.91085938 89.92554688 123.00140625 89.9375 124.125 C89.94652344 125.22070312 89.95554687 126.31640625 89.96484375 127.4453125 C89.97644531 128.28835937 89.98804688 129.13140625 90 130 C90.99 130 91.98 130 93 130 C94.32002556 127.44113496 95.63113782 124.87832932 96.9375 122.3125 C97.31068359 121.59126953 97.68386719 120.87003906 98.06835938 120.12695312 C99.93965239 116.43494258 101.48269556 113.16306904 102 109 C98.26071501 109 97.59097747 109.91959602 94.875 112.375 Z M-28 110 C-29.9868309 112.99417273 -31.89012473 116.03632519 -33.796875 119.08203125 C-37.24626701 123.65064089 -40.83992266 125.24959645 -46.4140625 126.1328125 C-47.42210937 126.29910156 -48.43015625 126.46539062 -49.46875 126.63671875 C-50.5103125 126.79785156 -51.551875 126.95898438 -52.625 127.125 C-54.70082229 127.45906968 -56.77635796 127.79492663 -58.8515625 128.1328125 C-59.76760254 128.27605957 -60.68364258 128.41930664 -61.62744141 128.56689453 C-64.13714459 128.96753587 -64.13714459 128.96753587 -67 130 C-66.67 129.01 -66.34 128.02 -66 127 C-67.09283577 125.96704564 -68.19970579 124.94892165 -69.3125 123.9375 C-69.92738281 123.36902344 -70.54226563 122.80054688 -71.17578125 122.21484375 C-71.77777344 121.81394531 -72.37976563 121.41304687 -73 121 C-76.14210205 121.66798742 -76.14210205 121.66798742 -77.1875 124.1875 C-78.07334979 127.25390311 -78.14770318 129.82438155 -78 133 C-81.63 133.66 -85.26 134.32 -89 135 C-89.33 135.99 -89.66 136.98 -90 138 C-88.74213186 139.61694908 -88.74213186 139.61694908 -87 141 C-84.10715652 140.47543933 -81.53971993 139.8105643 -78.75 138.9375 C-25.04301839 123.50141567 33.43874979 126.96778841 87 141 C87.99 138.525 87.99 138.525 89 136 C87.70990357 135.49596232 86.41786211 134.99690074 85.125 134.5 C84.40570312 134.2215625 83.68640625 133.943125 82.9453125 133.65625 C81.02632539 132.89344982 81.02632539 132.89344982 79 133 C78.01 129.7 77.02 126.4 76 123 C71.32165993 123 70.2690159 123.8217901 67 127 C67 127.99 67 128.98 67 130 C66.46197754 129.86722656 65.92395508 129.73445313 65.36962891 129.59765625 C61.31755256 128.64155815 57.36023106 127.87488484 53.2109375 127.5 C40.51135335 126.26460179 40.51135335 126.26460179 36.3203125 122.7578125 C34.57198567 120.22911661 33.25918587 117.79913615 32 115 C31.01574764 113.32398536 30.01998543 111.65451126 29 110 C24.92188363 111.35937212 24.78853835 113.19718731 22.86328125 116.96484375 C20.26267494 120.96463446 18.92157475 122.698794 14.34130859 124.19580078 C9.95410879 124.81071562 5.60390042 124.72643686 1.1875 124.5625 C0.41987335 124.55347656 -0.3477533 124.54445313 -1.13864136 124.53515625 C-15.35121456 124.3197944 -15.35121456 124.3197944 -20.640625 120.05859375 C-23.46321364 117.03241414 -25.2780431 113.74204365 -27 110 C-27.33 110 -27.66 110 -28 110 Z M75 118 C75.42771549 119.41965142 75.86765543 120.8356224 76.3125 122.25 C76.55613281 123.03890625 76.79976562 123.8278125 77.05078125 124.640625 C78.05108323 127.12697232 79.30857609 128.9342834 81 131 C80.71682074 129.39431334 80.42312209 127.79047953 80.125 126.1875 C79.88136719 124.84751953 79.88136719 124.84751953 79.6328125 123.48046875 C79.08811551 120.77272154 79.08811551 120.77272154 77 118 C76.34 118 75.68 118 75 118 Z M-284 135 C-282.50902342 138.7952131 -280.24299151 140.61042731 -277 143 C-278.49097658 139.2047869 -280.75700849 137.38957269 -284 135 Z M-55.8125 139 C-56.95783203 139.1659668 -58.10316406 139.33193359 -59.28320312 139.50292969 C-66.34595452 140.52848841 -66.34595452 140.52848841 -73 143 C-74.25795716 145.73946848 -74.25795716 145.73946848 -74.8125 148.9375 C-75.04582031 149.99839844 -75.27914063 151.05929688 -75.51953125 152.15234375 C-76.08318638 155.01171394 -76.08318638 155.01171394 -76 158 C-75.0205542 157.82871582 -74.0411084 157.65743164 -73.03198242 157.48095703 C-52.73121091 153.9545158 -32.62831408 150.73992866 -12 150 C-10.95972656 149.96148926 -9.91945313 149.92297852 -8.84765625 149.88330078 C20.4275324 148.97410534 49.22085696 153.15882767 78 158 C76.35 153.05 74.7 148.1 73 143 C30.08967217 134.19444314 -12.40663767 132.70743416 -55.8125 139 Z M277 142 C276.15911706 143.2308826 275.36666549 144.49487139 274.59375 145.76953125 C273.85608398 146.97113892 273.85608398 146.97113892 273.10351562 148.19702148 C272.30977539 149.49168335 272.30977539 149.49168335 271.5 150.8125 C266.7849586 158.3684236 262.02859549 165.41507439 256 172 C255.33581055 172.72775635 255.33581055 172.72775635 254.65820312 173.47021484 C238.45113007 191.01676135 217.58757847 201.8853466 195 209 C198.53326093 212.88199838 202.63225888 215.62311549 206.9375 218.5625 C213.6159078 223.19604633 219.89538781 228.08854024 226.0234375 233.421875 C228.80121998 235.82782833 231.63235209 238.14007603 234.5 240.4375 C239.16442477 244.23114214 243.57130696 248.24059195 247.953125 252.35180664 C251.29992773 255.47762196 254.7200335 258.47527314 258.23876953 261.40576172 C269.77133904 271.02636102 282.89527757 282.76848128 289.1875 296.625 C291.33251068 301.17186729 294.17384043 304.84973443 297.375 308.6875 C323.63656879 340.42913629 342.43508873 379.09023694 358 417 C358.33 417 358.66 417 359 417 C358.33638857 383.27647378 344.66625181 354.49810569 330 325 C322.04443246 308.98027259 315.01283492 292.85630344 309 276 C308.62665527 274.95408691 308.25331055 273.90817383 307.86865234 272.83056641 C293.18088662 230.97011015 283.23893574 186.03980356 278 142 C277.67 142 277.34 142 277 142 Z M-68 169 C-69.13308594 169.21543457 -70.26617188 169.43086914 -71.43359375 169.65283203 C-72.50738281 169.88212402 -73.58117187 170.11141602 -74.6875 170.34765625 C-75.64011719 170.54496338 -76.59273437 170.74227051 -77.57421875 170.94555664 C-80.7630878 172.3317005 -81.48287038 173.92897578 -83 177 C-88.23598697 186.19977631 -93.39171139 194.50505647 -101 202 C-101.80630859 202.82177734 -101.80630859 202.82177734 -102.62890625 203.66015625 C-116.97280592 217.14126496 -137.86128196 223.24270865 -157.19140625 222.99609375 C-163.02297327 222.78900017 -168.60840328 222.50392222 -174.21875 220.80078125 C-181.74691853 218.54456548 -181.74691853 218.54456548 -189.27148438 219.9609375 C-194.21400378 222.85697766 -198.56144264 226.45922831 -202.88818359 230.19433594 C-205.42845114 232.36633811 -208.06692227 234.38030539 -210.72924805 236.39892578 C-216.22196047 240.58983583 -221.44738044 245.04594412 -226.5234375 249.734375 C-227.8862291 250.98109287 -229.25708069 252.21982042 -230.66088867 253.42016602 C-236.38841347 258.32140088 -241.73021002 263.5774726 -247.0456543 268.9152832 C-248.5599258 270.43491668 -250.0794743 271.94912517 -251.59960938 273.46289062 C-256.94395275 278.80330678 -262.10227569 284.2433613 -267 290 C-267.93678968 291.06037502 -268.87551595 292.1190431 -269.81640625 293.17578125 C-317.78591073 347.66768314 -350.2248973 415.69066596 -367 486 C-367.20463867 486.81436523 -367.40927734 487.62873047 -367.62011719 488.46777344 C-370.50613656 501.00407749 -368.65170551 513.4980377 -366.9375 526.0625 C-366.71631126 527.7327323 -366.49587482 529.40306436 -366.27612305 531.07348633 C-365.53022081 536.71740447 -364.76617197 542.35880264 -364 548 C-363.70279774 550.19042945 -363.40559728 552.38085915 -363.10839844 554.57128906 C-362.95610275 555.69312088 -362.80380707 556.8149527 -362.64689636 557.97077942 C-362.17811308 561.42566586 -361.71027384 564.88067938 -361.24243164 568.33569336 C-360.63763727 572.80080672 -360.02689832 577.26504613 -359.41186523 581.72875977 C-356.86743993 600.29838194 -354.5912015 618.67142791 -354.6875 637.4375 C-354.68932281 638.18903351 -354.69114563 638.94056702 -354.69302368 639.71487427 C-354.78678674 662.84075308 -358.38683312 685.41969434 -367.08203125 706.95703125 C-369.43773881 714.76595121 -367.01748737 722.09169369 -365.0625 729.75 C-364.59541626 731.59380249 -364.59541626 731.59380249 -364.11889648 733.47485352 C-360.72579419 746.53633867 -356.52659437 759.29087083 -352 772 C-351.67418945 772.92329102 -351.34837891 773.84658203 -351.01269531 774.79785156 C-330.19302164 833.28711095 -295.08682546 886.50111737 -252 931 C-251.11957031 931.91007813 -250.23914063 932.82015625 -249.33203125 933.7578125 C-244.74610878 938.41477336 -239.96545503 942.75466155 -235 947 C-233.55947266 948.27423828 -233.55947266 948.27423828 -232.08984375 949.57421875 C-186.00398105 990.12894618 -130.36562457 1019.49773718 -70.75 1034 C-69.59000488 1034.31042236 -68.43000977 1034.62084473 -67.23486328 1034.94067383 C-61.33021223 1036.37023978 -61.33021223 1036.37023978 -55.67553711 1034.81347656 C-53.5581477 1033.01124882 -51.79858919 1031.11832733 -50 1029 C-48.82785881 1027.80371418 -47.65214839 1026.61091369 -46.47265625 1025.421875 C-45.33070557 1024.2027966 -44.19407319 1022.97871707 -43.0625 1021.75 C-42.4540625 1021.09233643 -41.845625 1020.43467285 -41.21875 1019.75708008 C-36.2485166 1014.34561975 -31.53906212 1008.77900104 -27 1003 C-25.8971417 1001.61588041 -24.79427656 1000.23176627 -23.69140625 998.84765625 C-16.30721378 989.52522629 -9.34276831 980.06122651 -3 970 C-2.63632324 969.42813965 -2.27264648 968.8562793 -1.89794922 968.26708984 C0.85415715 963.91133565 3.46111142 959.48308253 6 955 C6.69246826 953.77893555 6.69246826 953.77893555 7.39892578 952.53320312 C27.77719039 916.14680653 40.45563381 874.63990408 30 833 C29.75636719 831.80375 29.51273438 830.6075 29.26171875 829.375 C27.12879811 820.4794068 23.28217359 817.13720346 16 812 C5.54564779 803.06127051 -0.76274202 791.56438333 -6 779 C-7.03511719 779.49886719 -8.07023437 779.99773438 -9.13671875 780.51171875 C-31.69658652 791.32524234 -54.35325007 801.77216267 -78 810 C-79.00981934 810.35433105 -80.01963867 810.70866211 -81.06005859 811.07373047 C-99.42541389 817.44750421 -118.58594013 823.3363639 -138.1875 823.5 C-139.2556897 823.50966797 -139.2556897 823.50966797 -140.34545898 823.51953125 C-144.90062468 823.40444872 -148.12002144 822.36070985 -152 820 C-165.58255989 801.88992015 -153.28374521 750.21387244 -150.1875 727.94921875 C-145.68702561 696.52946313 -137.03894232 666.84040242 -126.87661743 636.8644104 C-120.67369597 618.52641577 -114.76565831 600.1164393 -114.875 580.5625 C-114.87113281 579.84384766 -114.86726562 579.12519531 -114.86328125 578.38476562 C-114.5557644 574.90184984 -114.5557644 574.90184984 -116 572 C-120.20077383 571.7368435 -124.4170323 571.81030935 -128.625 571.8125 C-130.53140259 571.8115332 -130.53140259 571.8115332 -132.47631836 571.81054688 C-140.22749046 571.85321833 -147.85401182 572.20839915 -155.5625 573 C-173.1924626 574.77016418 -191.81101123 576.0207633 -209 571 C-209.928125 570.75636719 -210.85625 570.51273438 -211.8125 570.26171875 C-219.79364561 567.81401276 -226.26638061 563.0966286 -233.03417969 558.36425781 C-236.28176785 556.11046712 -239.58026745 553.93400359 -242.875 551.75 C-244.1135276 550.92484881 -245.35181709 550.09934009 -246.58984375 549.2734375 C-247.45778564 548.69480957 -247.45778564 548.69480957 -248.34326172 548.10449219 C-251.89550781 545.73632812 -255.44775391 543.36816406 -259 541 C-257 539 -257 539 -253.6875 538.5625 C-242.76984334 538.95311383 -233.22016592 545.39219773 -224.35595703 551.1652832 C-223.63263184 551.63023193 -222.90930664 552.09518066 -222.1640625 552.57421875 C-221.52936035 552.99276123 -220.8946582 553.41130371 -220.24072266 553.8425293 C-214.73836254 556.68483582 -209.26807656 557.30197311 -203.16796875 557.265625 C-202.45014725 557.26753845 -201.73232574 557.2694519 -200.99275208 557.27142334 C-199.48938645 557.27277465 -197.98600873 557.2691525 -196.48266602 557.26074219 C-194.17633254 557.24994773 -191.87076397 557.26071303 -189.56445312 557.2734375 C-188.09895661 557.27211726 -186.63346058 557.26955768 -185.16796875 557.265625 C-184.47841599 557.26967346 -183.78886322 557.27372192 -183.07841492 557.27789307 C-179.09422938 557.34064471 -179.09422938 557.34064471 -176 555 C-176.65371582 554.8047876 -177.30743164 554.6095752 -177.98095703 554.40844727 C-211.17728975 544.3421424 -211.17728975 544.3421424 -217 534 C-216.67 533.01 -216.34 532.02 -216 531 C-209.33662748 528.77887583 -204.76138212 530.24809687 -198.72851562 533.24804688 C-197.88998047 533.68181641 -197.05144531 534.11558594 -196.1875 534.5625 C-194.4970046 535.42489397 -192.80314514 536.2807359 -191.10546875 537.12890625 C-190.36449951 537.51119385 -189.62353027 537.89348145 -188.86010742 538.28735352 C-187.93935425 538.64011353 -187.93935425 538.64011353 -187 539 C-186.34 538.67 -185.68 538.34 -185 538 C-188.08511128 531.75067202 -191.06820091 526.49721716 -196.1953125 521.74609375 C-202.22087475 515.91616664 -206.50660659 510.06015101 -207.3359375 501.5546875 C-207.48317505 487.68491074 -204.34056674 477.45334184 -195 467 C-191.89582846 464.23347519 -188.72194122 461.86097061 -185 460 C-184.68289895 457.61234108 -184.68289895 457.61234108 -184.625 454.8125 C-184.24132112 449.79215942 -183.46382128 446.83828844 -180 443 C-176.46024431 440.21338382 -173.53575633 438.36776403 -169 438 C-168.01 438.33 -167.02 438.66 -166 439 C-164.9171875 438.6596875 -164.9171875 438.6596875 -163.8125 438.3125 C-160.05173544 437.89463727 -158.07990628 439.24596819 -154.8671875 441.08984375 C-152.89675309 442.21908213 -152.89675309 442.21908213 -150 442 C-149.34 440.68 -148.68 439.36 -148 438 C-157.88002877 425.2599629 -172.20544539 418.35435262 -188 416 C-196.03756632 415.48114302 -204.00954847 416.10327598 -212 417 C-212 416.34 -212 415.68 -212 415 C-204.96472092 413.22657444 -198.82298782 412.82300321 -191.625 413.625 C-190.7067041 413.72200195 -189.7884082 413.81900391 -188.84228516 413.91894531 C-181.84770625 414.73689466 -175.45437158 416.10034948 -169 419 C-168.09507812 419.39832031 -167.19015625 419.79664063 -166.2578125 420.20703125 C-159.88159123 423.34095303 -155.02550101 427.388199 -150.14648438 432.48071289 C-148.58680644 434.10380899 -148.58680644 434.10380899 -146 436 C-143.35179312 435.99867233 -143.35179312 435.99867233 -141 435 C-135.71863335 433.70457045 -132.58759851 433.95777574 -127.9296875 436.55859375 C-123.45422555 439.90160076 -119.99298039 444.45034295 -119 450 C-118.74456638 454.68294973 -119.26053113 457.70931013 -121 462 C-121.03667297 464.03503019 -121.03667297 464.03503019 -120 466 C-117.40588313 467.627905 -117.40588313 467.627905 -114.25 468.9375 C-106.60564751 472.56041587 -102.78375295 476.56762814 -99 484 C-96.69367843 491.58658411 -97.8378121 498.85129317 -101 506 C-102.89191291 509.27931571 -104.6174271 511.65789154 -107.4375 514.1796875 C-110.51093902 517.56234448 -111.69562702 520.60285171 -113.125 524.875 C-113.60514822 526.24796437 -114.08690873 527.62036599 -114.5703125 528.9921875 C-114.80137695 529.65573242 -115.03244141 530.31927734 -115.27050781 531.00292969 C-116.38728192 534.06022963 -117.68621346 537.0226021 -119 540 C-117.84242188 540.02578125 -116.68484375 540.0515625 -115.4921875 540.078125 C-113.95308872 540.13443349 -112.41402767 540.1917802 -110.875 540.25 C-110.11445312 540.26417969 -109.35390625 540.27835938 -108.5703125 540.29296875 C-102.43644205 540.55735972 -98.54074329 542.27777505 -94.25 546.875 C-86.59540608 559.88780966 -89.71530479 579.59899983 -90.7578125 594 C-90.84328842 595.18636047 -90.92876434 596.37272095 -91.01683044 597.59503174 C-92.39643102 616.00586643 -94.27142763 634.37570466 -96.0625 652.75 C-96.69982512 659.29603271 -97.33469308 665.84229422 -97.96554375 672.38895416 C-98.21415336 674.95897568 -98.46607644 677.52865642 -98.71827698 680.09832764 C-99.98200493 693.09764132 -101.1466693 706.12038618 -101.16796875 719.19140625 C-101.17129715 719.95122299 -101.17462555 720.71103973 -101.17805481 721.49388123 C-101.1830227 723.06370453 -101.18546638 724.63353799 -101.18530273 726.20336914 C-101.1875276 728.5921313 -101.20589271 730.98045716 -101.22460938 733.36914062 C-101.22753811 734.91406096 -101.22952638 736.45898343 -101.23046875 738.00390625 C-101.24124702 739.05560753 -101.24124702 739.05560753 -101.25224304 740.1285553 C-101.23068229 744.81387292 -100.44680287 748.59579875 -99 753 C-65.20948529 741.40082773 -30.05063127 729.29422045 -1 708 C-0.00871094 707.28714844 0.98257812 706.57429687 2.00390625 705.83984375 C13.39652971 697.4812079 24.4415375 688.52644975 34.84765625 678.96875 C36.84370099 677.14296679 38.87975666 675.38049935 40.9375 673.625 C44.27353279 670.72703212 47.39552017 667.6415514 50.5 664.5 C55.58572154 659.35354825 60.85333538 654.51831349 66.50390625 649.99609375 C72.3307966 645.14179911 75.66893909 640.69098649 78.6484375 633.69921875 C80.67857542 629.64481036 82.68101598 627.43966134 87 626 C86.67 625.01 86.34 624.02 86 623 C86 619.78353443 86.54692871 618.72584225 88.00390625 615.94921875 C90.39706689 610.73859314 90.27634973 606.44229835 89.9375 600.8125 C89.65557268 591.32510524 91.08024573 584.71531194 95 576 C99.79488606 564.36925598 103.23026522 552.6189854 104 540 C104.05285156 539.27167969 104.10570312 538.54335938 104.16015625 537.79296875 C104.6850362 524.03198567 101.35406834 508.62314566 92.63671875 497.75390625 C87.57205898 492.32662167 82.00790811 489.38990961 74.546875 488.6640625 C61.13286755 488.52605831 48.93626361 491.11382384 36.375 495.75 C27.88611698 498.71060075 18.24879061 500.01357113 9.66015625 496.71875 C6.79901806 494.87014383 6.19100035 494.08939533 5 491 C4.82055664 488.80517578 4.82055664 488.80517578 4.91015625 486.4453125 C4.93013672 485.58292969 4.95011719 484.72054688 4.97070312 483.83203125 C5.03164107 482.03501014 5.09670991 480.2381241 5.16601562 478.44140625 C5.27947756 473.1908576 5.10116361 469.47562142 2 465 C0.05261072 463.41210377 0.05261072 463.41210377 -2.125 462.375 C-5.80695529 460.47333079 -5.80695529 460.47333079 -6.8125 458.0078125 C-7.10347678 454.89193609 -5.84503208 453.46004278 -4 451 C-3.113125 450.29875 -2.22625 449.5975 -1.3125 448.875 C-0.549375 448.25625 0.21375 447.6375 1 447 C1 446.01 1 445.02 1 444 C0.30132813 443.87882812 -0.39734375 443.75765625 -1.1171875 443.6328125 C-2.02726562 443.46523438 -2.93734375 443.29765625 -3.875 443.125 C-5.23238281 442.88136719 -5.23238281 442.88136719 -6.6171875 442.6328125 C-9 442 -9 442 -11 440 C-11.625 437.875 -11.625 437.875 -12 436 C-11.401875 435.7525 -10.80375 435.505 -10.1875 435.25 C-7.71352479 433.83629988 -6.56629745 432.34944617 -5 430 C-6.42838339 426.56739279 -8.12608264 424.92045621 -11.0625 422.6875 C-13.88981055 420.25373451 -14.96087033 419.09357094 -16.4375 415.5625 C-15.78019537 410.21016233 -12.73137582 407.69556607 -9 404 C-2.94936935 397.91033302 1.37819824 391.25656118 4 383 C3.75746605 380.20427651 3.75746605 380.20427651 3 378 C2.14728516 377.814375 2.14728516 377.814375 1.27734375 377.625 C-5.44636312 375.8290182 -9.03858947 372.68099388 -13 367 C-13 366.67 -13 366.34 -13 366 C-12.278125 366.61875 -11.55625 367.2375 -10.8125 367.875 C-6.65606794 371.01541533 -4.45351433 372.14296862 0.8125 371.625 C1.864375 371.41875 2.91625 371.2125 4 371 C3.855625 369.80375 3.71125 368.6075 3.5625 367.375 C3.48128906 366.70210937 3.40007812 366.02921875 3.31640625 365.3359375 C3.08727898 363.64435594 2.80593149 361.95957973 2.49291992 360.28149414 C1.68657446 354.9134459 1.77519048 349.54661826 1.75976562 344.12670898 C1.75017273 342.09901069 1.71915196 340.07237816 1.6875 338.04492188 C1.53197039 318.90866402 5.99675381 299.1272337 19.1796875 284.59765625 C23.75993044 280.20512818 28.52933347 277.06358133 34.125 274.125 C41.17753617 270.40549883 44.70741961 265.5720886 49 259 C58.42940405 246.92081405 74.66729826 241.13593538 89.25390625 238.38671875 C119.51070649 235.26323259 144.94460541 243.2154281 169.609375 260.43359375 C173.09741145 262.71905554 176.43641606 263.56630735 180.6171875 263.55859375 C184.88312128 262.55854698 187.9525189 259.67521181 191.2890625 256.9453125 C196.35657466 253.30897092 201.83368517 252.09734721 208 253 C212.41035803 254.36687432 216.56172289 255.98361751 220.34375 258.65625 C223.90810824 260.45939594 226.37184262 260.09261431 230.3125 259.6875 C231.56675781 259.56761719 232.82101562 259.44773437 234.11328125 259.32421875 C235.54220703 259.16373047 235.54220703 259.16373047 237 259 C223.28592506 245.18726265 208.23885942 233.36546355 192.24609375 222.30078125 C189 220 189 220 186.09765625 217.60546875 C177.78405969 211.09372165 171.28877139 211.46149934 161.25634766 211.94384766 C137.83910447 212.52661826 114.42692777 202.42092964 97.53515625 186.70703125 C94.28590054 183.56309987 91.45681286 180.77484713 89.1484375 176.859375 C86.46173406 173.28361697 84.81506441 172.85830008 80.5 171.875 C79.52039307 171.64598999 79.52039307 171.64598999 78.52099609 171.41235352 C76.35223183 170.91586195 74.17721294 170.4578871 72 170 C70.48164929 169.65809138 68.96342254 169.31563189 67.4453125 168.97265625 C47.9242456 164.7008553 27.96566286 162.53384125 8 162 C7.30519531 161.97808594 6.61039063 161.95617187 5.89453125 161.93359375 C-18.96425616 161.23400311 -43.65671853 164.15625642 -68 169 Z M-280 170 C-280.24737915 171.23242432 -280.24737915 171.23242432 -280.49975586 172.48974609 C-293.35871349 236.03380643 -312.81428939 296.71487904 -344.58691406 353.46728516 C-358.34446065 378.12533427 -373.2965487 405.60586886 -373.09765625 434.55859375 C-373.0962413 435.34774673 -373.09482635 436.13689972 -373.09336853 436.94996643 C-373.08781555 439.44585115 -373.07527208 441.94164285 -373.0625 444.4375 C-373.05747891 446.13997265 -373.05291707 447.84244673 -373.04882812 449.54492188 C-373.03786158 453.69664988 -373.02062991 457.84830922 -373 462 C-371.00499069 459.00748604 -370.2180209 456.77451206 -369.22265625 453.34765625 C-368.70844116 451.6152771 -368.70844116 451.6152771 -368.18383789 449.84790039 C-367.81379639 448.59871826 -367.44375488 447.34953613 -367.0625 446.0625 C-357.75600355 415.24843043 -344.86236799 385.97733337 -329 358 C-328.58814453 357.26507324 -328.17628906 356.53014648 -327.75195312 355.77294922 C-311.50435594 326.85303726 -291.93016756 299.81752904 -269.27099609 275.61181641 C-266.66406266 272.82648965 -264.12318023 270.00029614 -261.62890625 267.11328125 C-257.99006942 262.93728989 -254.16823754 258.97596735 -250.25 255.0625 C-249.5482666 254.36157227 -248.8465332 253.66064453 -248.12353516 252.93847656 C-243.53866624 248.40717657 -238.83177745 244.17875364 -233.7578125 240.1953125 C-231.10802063 238.08598809 -228.56036522 235.89576625 -226.01269531 233.66601562 C-218.34181411 226.95983804 -210.29907118 220.90466129 -202 215 C-205.10333227 211.61870419 -208.80330104 210.13409055 -212.9375 208.3125 C-220.48401561 204.86868845 -227.30553694 200.93327438 -234 196 C-234.825 195.39800781 -235.65 194.79601562 -236.5 194.17578125 C-254.16318093 180.67363813 -254.16318093 180.67363813 -258 173 C-259.8253125 173.0928125 -259.8253125 173.0928125 -261.6875 173.1875 C-265.93083793 173.20897992 -269.71116409 172.48261335 -273.83203125 171.48828125 C-274.99065674 171.21153564 -276.14928223 170.93479004 -277.34301758 170.6496582 C-278.21982178 170.435271 -279.09662598 170.22088379 -280 170 Z M-102 178.25 C-102.79446533 178.52424805 -103.58893066 178.79849609 -104.4074707 179.08105469 C-105.26300537 179.38430664 -106.11854004 179.68755859 -107 180 C-107.89356201 180.31614258 -108.78712402 180.63228516 -109.70776367 180.95800781 C-131.24067446 188.68611773 -154.32363475 197.59316583 -173 211 C-173 211.33 -173 211.66 -173 212 C-148.51097679 212.86178381 -126.03945127 208.61366043 -107.33691406 191.47607422 C-99.92416176 185.06864059 -99.92416176 185.06864059 -95 177 C-97.82980854 177 -99.37852168 177.34404793 -102 178.25 Z M102 179 C114.14239704 195.42794893 135.96788223 204.33378911 155.59375 207.59765625 C158.42477792 207.93205519 161.0934089 208.10625525 163.9375 208.0625 C165.09572266 208.04896484 165.09572266 208.04896484 166.27734375 208.03515625 C166.84582031 208.02355469 167.41429687 208.01195312 168 208 C153.179386 195.89520532 121.34735977 179 102 179 Z M298 330 C294.72191165 338.42937004 294.03287057 344.28405729 297 353 C297.7224076 359.6220697 295.55406488 363.71516868 291.62109375 368.7734375 C290.44137156 370.20523708 289.22406802 371.60592253 288 373 C288.7425 374.485 288.7425 374.485 289.5 376 C291.30491005 380.27478696 291.51455239 383.36902849 291 388 C289.02361124 392.19982612 287.08694417 394.03886645 283.0625 396.0625 C277.88062251 398.98930117 276.96640236 403.56234953 275.14453125 408.9609375 C273.66514723 412.88913124 272.32263269 414.50802548 269 417 C268.2575 417.5775 267.515 418.155 266.75 418.75 C264.07748084 419.96478144 262.37811935 420.25221489 259.5 420.5 C255.53844462 420.86729653 253.06827691 421.27264275 250 424 C248.68613756 426.21687539 247.50726981 428.48231435 246.328125 430.7734375 C244.06368004 434.56971288 240.95924416 437.02037792 237 439 C233.75687697 439.29172012 230.50472351 439.27792433 227.25 439.3125 C225.90808594 439.35600586 225.90808594 439.35600586 224.5390625 439.40039062 C218.83557123 439.45507011 215.47774034 438.89003692 211 435 C208.75 431.9375 208.75 431.9375 207 429 C206.34 428.01 205.68 427.02 205 426 C204.52691406 426.73863281 204.05382812 427.47726562 203.56640625 428.23828125 C190.07091453 448.94189135 175.84402261 464.28400571 151.05078125 469.63671875 C150.37402344 469.75660156 149.69726562 469.87648438 149 470 C148.07321889 490.80108718 152.41512216 506.72226176 166 523 C166.29777344 522.39542969 166.59554687 521.79085937 166.90234375 521.16796875 C170.5283943 514.00619632 176.19968813 506.4077036 183.484375 502.75390625 C189.62068983 500.91491749 196.1496457 501.3912286 202.0390625 503.8671875 C205.7981017 506.03874401 208.89836519 508.9891045 212 512 C212.495 511.319375 212.99 510.63875 213.5 509.9375 C222.09055118 499.84360236 222.09055118 499.84360236 229 498.8125 C234.97329796 498.6384315 238.99109091 500.53816529 243.546875 504.265625 C249.9601447 510.81681448 257.10078917 523.84333589 257.1875 533 C257.20167969 533.680625 257.21585938 534.36125 257.23046875 535.0625 C257 537 257 537 255 540 C246.75282713 543.23798398 237.75493966 543.62441827 229 544 C231.2381453 546.2381453 232.07617338 546.32583808 235.0625 547 C241.41132501 549.01680665 245.33474377 553.59599193 249 559 C249.92325041 561.59979966 250.06057834 563.21339651 250 566 C246.90609546 568.09587082 244.0636064 569.31302442 240.5 570.3125 C234.55691218 572.20482647 232.14166433 576.04812227 229.0625 581.3125 C227 584 227 584 223.75 584.875 C222.8425 584.91625 221.935 584.9575 221 585 C217.97865819 581.52412004 216.661956 577.65923061 215.1875 573.375 C212.82025677 566.74852946 209.96472424 560.84867122 206 555 C202.62496331 556.1858237 200.35277269 557.27573689 198 560 C198.60585938 560.74121094 199.21171875 561.48242188 199.8359375 562.24609375 C231.43259052 601.62724475 244.37795198 655.37658155 247.6875 704.9375 C247.75170135 705.85312714 247.81590271 706.76875427 247.88204956 707.71212769 C249.16734411 726.41830091 249.22403771 745.09137727 248.97729492 763.83374023 C248.96630768 764.89188934 248.95532043 765.95003845 248.94400024 767.04025269 C248.9219785 769.029656 248.89109569 771.01898758 248.84994507 773.00808716 C248.8353978 774.32871658 248.8353978 774.32871658 248.82055664 775.67602539 C248.8070668 776.44266006 248.79357697 777.20929474 248.77967834 777.99916077 C248.87967738 780.31817125 248.87967738 780.31817125 251 783 C251.07905064 785.33199388 251.08798769 787.66832622 251 790 C250.01 790.33 249.02 790.66 248 791 C247.04364317 793.86907049 246.7250544 796.44547076 246.45629883 799.44165039 C244.23862863 823.58407422 237.8159963 847.39706101 229.8125 870.21875 C229.53523575 871.01198166 229.2579715 871.80521332 228.9723053 872.6224823 C227.58444151 876.58217772 226.17630133 880.53291907 224.73608398 884.47387695 C224.21825405 885.92647632 223.70074229 887.37918916 223.18359375 888.83203125 C222.93299194 889.49759033 222.68239014 890.16314941 222.42419434 890.84887695 C221.1276362 894.53480278 221.1276362 894.53480278 221.74316406 898.29907227 C223.49769173 900.67354667 225.37372979 902.89747678 227.3125 905.125 C231.84378303 910.42671206 235.98951583 915.96535131 240.0625 921.625 C240.63460205 922.41922363 241.2067041 923.21344727 241.79614258 924.03173828 C245.85228559 929.70457118 245.85228559 929.70457118 247 932 C247.66 932 248.32 932 249 932 C250.3641228 930.65062663 250.3641228 930.65062663 251.8125 928.8125 C255.13993163 924.88071232 258.69976791 921.28700324 262.375 917.6875 C268.02713522 912.10509475 273.08886411 906.24977599 278 900 C278.91857719 898.86946926 279.83926662 897.74065247 280.76171875 896.61328125 C297.95212336 875.53318098 313.05042738 853.01288288 325.90478516 829.03466797 C326.94658492 827.09923345 328.00712848 825.17548447 329.07421875 823.25390625 C348.71851161 787.61272578 360.80613022 748.46318022 370 709 C370.23235352 708.0497998 370.46470703 707.09959961 370.70410156 706.12060547 C370.89713867 705.2751416 371.09017578 704.42967773 371.2890625 703.55859375 C371.4535791 702.85919678 371.6180957 702.1597998 371.78759766 701.43920898 C372.45238397 693.80486409 369.90866732 686.19318375 368.015625 678.8828125 C367.40351348 676.47529406 366.79153905 674.06774077 366.1796875 671.66015625 C365.22367502 667.92200185 364.26530542 664.18447634 363.30371094 660.44775391 C349.14781897 605.32243738 349.72384226 556.84942832 355.08045959 500.62348938 C355.56672294 495.50026937 356.04382805 490.37621098 356.5206604 485.25210571 C356.86936065 481.55971509 357.2343882 477.86918152 357.6003418 474.1784668 C357.8149847 471.90029318 358.02896622 469.62205711 358.2421875 467.34375 C358.34919479 466.31248489 358.45620209 465.28121979 358.56645203 464.21870422 C359.10712772 458.23946528 358.82895613 453.72693796 357 448 C356.68498535 446.99348389 356.3699707 445.98696777 356.04541016 444.94995117 C343.42996318 408.50838709 326.9649499 374.1785565 306.5 341.5 C305.9954126 340.69216064 305.4908252 339.88432129 304.97094727 339.05200195 C304.25829712 337.92797974 304.25829712 337.92797974 303.53125 336.78125 C303.11423828 336.12189453 302.69722656 335.46253906 302.26757812 334.78320312 C300.98884117 332.98430198 299.60413584 331.51073637 298 330 Z M365 480 C364.10019173 489.20672163 363.20449246 498.41383177 362.31375217 507.62143517 C361.89983175 511.89885707 361.48460182 516.17614264 361.06616211 520.453125 C360.66088743 524.59607842 360.25933582 528.73937863 359.86015129 532.88292313 C359.70876157 534.44792662 359.55612649 536.01281027 359.40210152 537.57755661 C355.16030351 580.71656895 360.25166443 620.30164942 369.25 662.4375 C369.50852753 663.65847382 369.50852753 663.65847382 369.77227783 664.90411377 C370.2624529 667.20733404 370.76216551 669.50824519 371.265625 671.80859375 C371.41125885 672.49448074 371.5568927 673.18036774 371.7069397 673.88703918 C372.4291061 677.12770088 373.12976272 679.19464408 375 682 C383.21889612 620.2206993 382.89689368 558.93972378 370.3125 497.75 C370.16229401 497.01572784 370.01208801 496.28145569 369.85733032 495.52493286 C368.42406998 487.38157441 368.42406998 487.38157441 365 480 Z M-375 529 C-375.46917817 532.18599242 -375.92292117 535.37404016 -376.375 538.5625 C-376.50132812 539.41908203 -376.62765625 540.27566406 -376.7578125 541.15820312 C-379.6401862 561.6951157 -380.40465462 582.15679822 -380.375 602.875 C-380.37512085 604.18038727 -380.3752417 605.48577454 -380.37536621 606.83071899 C-380.35210963 638.24524991 -377.70748422 669.09975382 -372 700 C-371.34 700 -370.68 700 -370 700 C-355.69080639 641.89703103 -365.43174574 587.311363 -374 529 C-374.33 529 -374.66 529 -375 529 Z M378 726 C377.6596875 727.21429687 377.319375 728.42859375 376.96875 729.6796875 C375.33961879 735.46101172 373.67344531 741.23136828 372 747 C371.55841553 748.53213135 371.55841553 748.53213135 371.10791016 750.09521484 C358.06148148 795.0470561 337.97235402 837.69039362 311 876 C310.52030762 876.68787598 310.04061523 877.37575195 309.54638672 878.08447266 C302.87744165 887.61843853 295.9170973 896.79086794 288.31738281 905.60693359 C287.75245117 906.27160645 287.18751953 906.9362793 286.60546875 907.62109375 C286.10168701 908.2030249 285.59790527 908.78495605 285.07885742 909.38452148 C283.72231646 911.09203559 283.72231646 911.09203559 284 914 C292.41904905 908.11172722 300.25595397 901.73701794 308 895 C308.81984375 894.29359375 309.6396875 893.5871875 310.484375 892.859375 C322.20316741 882.55627563 333.61430278 871.49658745 343 859 C343.59820557 858.20843506 343.59820557 858.20843506 344.20849609 857.40087891 C350.52717984 848.98647817 356.05710512 840.29264237 361 831 C361.33773437 830.36835937 361.67546875 829.73671875 362.0234375 829.0859375 C374.01179216 806.46129825 381.20066718 782.80928275 381.1875 757.0625 C381.1884668 755.1285437 381.1884668 755.1285437 381.18945312 753.15551758 C381.13852935 743.95393826 380.59886133 735.0649727 379 726 C378.67 726 378.34 726 378 726 Z M-377 732 C-396.40739929 775.10418436 -413.55900812 818.84645521 -396.78613281 865.96484375 C-391.35687886 880.02020429 -383.368514 892.77520953 -373.078125 903.765625 C-371.33048582 905.64466562 -369.72402997 907.55911762 -368.125 909.5625 C-364.03175096 914.37941738 -358.93428642 918.09199078 -354 922 C-353.22914063 922.64839844 -352.45828125 923.29679688 -351.6640625 923.96484375 C-320.00653098 950.38213541 -280.08695167 963.99148016 -241 975 C-239.74171387 975.35674805 -238.48342773 975.71349609 -237.18701172 976.08105469 C-233.54468984 977.1082919 -229.89877127 978.12093302 -226.25 979.125 C-225.14245361 979.43276367 -224.03490723 979.74052734 -222.89379883 980.05761719 C-221.37629028 980.46608887 -221.37629028 980.46608887 -219.828125 980.8828125 C-218.4963623 981.24463623 -218.4963623 981.24463623 -217.13769531 981.61376953 C-214.95708816 982.22817535 -214.95708816 982.22817535 -213 981 C-218.66205825 976.25243226 -224.32135787 971.51202684 -230.125 966.9375 C-234.41071947 963.52809378 -238.49280684 959.93964259 -242.53515625 956.24609375 C-244.07020404 954.84727841 -245.61770377 953.46185736 -247.18359375 952.09765625 C-253.25648742 946.78255867 -258.97324224 941.13372137 -264.6875 935.4375 C-265.49566162 934.63393066 -266.30382324 933.83036133 -267.13647461 933.00244141 C-271.96387843 928.16263291 -276.56040622 923.19625498 -281 918 C-281.85722656 917.02417969 -282.71445312 916.04835938 -283.59765625 915.04296875 C-329.31226939 862.08356747 -356.47627629 798.46854875 -376 732 C-376.33 732 -376.66 732 -377 732 Z " fill="#000000" transform="translate(623,16)"/>
<path d="M0 0 C8.19400421 1.32722365 16.35139309 2.79393626 24.5 4.375 C26.17872192 4.69718506 26.17872192 4.69718506 27.89135742 5.02587891 C33.25575298 6.05976782 38.61238614 7.1181716 43.95703125 8.25 C44.86582031 8.44029785 45.77460937 8.6305957 46.7109375 8.82666016 C48.39894317 9.18244664 50.08528934 9.54623611 51.76953125 9.91943359 C59.88229429 11.62290546 64.19466258 9.56800575 71.37890625 5.9609375 C74.17606889 4.93545016 75.27420805 4.93533773 78 6 C72.10434815 12.71739094 67.05023487 16.85303918 58.640625 19.92578125 C53.31426211 22.09257089 50.66054638 26.09899351 48 31 C43.17783964 30.23180095 38.39843582 29.3359858 33.625 28.3125 C32.90828125 28.17650391 32.1915625 28.04050781 31.453125 27.90039062 C21.50202696 25.71797472 15.26248425 18.54948206 8.5625 11.3125 C7.84384766 10.55388672 7.12519531 9.79527344 6.38476562 9.01367188 C1.13088995 3.39266986 1.13088995 3.39266986 0 0 Z " fill="#000000" transform="translate(854,106)"/>
<path d="M0 0 C7.77585118 5.55417941 12.41736639 13.88482256 15 23 C14.21834601 32.60507025 7.74057875 41.51985194 2 49 C0.25390625 48.91015625 0.25390625 48.91015625 -2 48 C-3.5431001 45.81715015 -4.81133261 43.77769645 -6.0625 41.4375 C-6.41175537 40.79925293 -6.76101074 40.16100586 -7.12084961 39.50341797 C-13.90912714 26.90644929 -13.90912714 26.90644929 -12.703125 20.2734375 C-10.22222306 12.25185457 -6.37241295 5.46206825 0 0 Z M0 3 C-5.60229368 9.3733959 -10.98915911 16.48462503 -11.00390625 25.34765625 C-9.85050671 32.08969274 -6.12635424 39.45218818 -0.8046875 43.7890625 C-0.20914063 44.18867187 0.38640625 44.58828125 1 45 C9.62958522 35.3948676 9.62958522 35.3948676 12.84765625 23.49609375 C10.81426504 15.80770924 6.69871364 7.49956791 0 3 Z " fill="#000000" transform="translate(623,81)"/>
<path d="M0 0 C0 3 0 3 -2.5 5.6875 C-3.325 6.450625 -4.15 7.21375 -5 8 C-5.99 7.67 -6.98 7.34 -8 7 C-6.72530598 4.45061196 -5.50840774 4.25420387 -3 3 C-1.29078411 1.4587688 -1.29078411 1.4587688 0 0 Z " fill="#000000" transform="translate(680,129)"/>
<path d="M0 0 C0.66 0 1.32 0 2 0 C2.33 1.32 2.66 2.64 3 4 C1.68 3.01 0.36 2.02 -1 1 C-0.67 0.67 -0.34 0.34 0 0 Z " fill="#000000" transform="translate(678,103)"/>
<path d="M0 0 C0.66 0.66 1.32 1.32 2 2 C1.67 2.99 1.34 3.98 1 5 C0.67 3.35 0.34 1.7 0 0 Z " fill="#000000" transform="translate(670,129)"/>
<path d="M0 0 C0.33 0.99 0.66 1.98 1 3 C0.34 3.66 -0.32 4.32 -1 5 C-0.67 3.35 -0.34 1.7 0 0 Z " fill="#000000" transform="translate(561,116)"/>
<path d="M0 0 C0.66 0.66 1.32 1.32 2 2 C1.67 2.99 1.34 3.98 1 5 C0.67 3.35 0.34 1.7 0 0 Z " fill="#000000" transform="translate(681,107)"/>
<path d="M0 0 C0.99 0.99 1.98 1.98 3 3 C2.01 2.67 1.02 2.34 0 2 C0 1.34 0 0.68 0 0 Z " fill="#000000" transform="translate(528,130)"/>
<path d="M0 0 C1 4 1 4 1 4 Z " fill="#000000" transform="translate(714,135)"/>
<path d="M0 0 C0 3 0 3 0 3 Z " fill="#000000" transform="translate(672,109)"/>
<path d="" fill="#000000" transform="translate(0,0)"/>
<path d="" fill="#000000" transform="translate(0,0)"/>
<path d="" fill="#000000" transform="translate(0,0)"/>
<path d="" fill="#000000" transform="translate(0,0)"/>
<path d="" fill="#000000" transform="translate(0,0)"/>
<path d="" fill="#000000" transform="translate(0,0)"/>
<path d="" fill="#000000" transform="translate(0,0)"/>
<path d="" fill="#000000" transform="translate(0,0)"/>
<path d="" fill="#000000" transform="translate(0,0)"/>
<path d="" fill="#000000" transform="translate(0,0)"/>
<path d="" fill="#000000" transform="translate(0,0)"/>
<path d="" fill="#000000" transform="translate(0,0)"/>
<path d="" fill="#000000" transform="translate(0,0)"/>
<path d="" fill="#000000" transform="translate(0,0)"/>
<path d="" fill="#000000" transform="translate(0,0)"/>
<path d="" fill="#000000" transform="translate(0,0)"/>
<path d="" fill="#000000" transform="translate(0,0)"/>
<path d="" fill="#000000" transform="translate(0,0)"/>
<path d="" fill="#000000" transform="translate(0,0)"/>
<path d="" fill="#000000" transform="translate(0,0)"/>
<path d="" fill="#000000" transform="translate(0,0)"/>
<path d="" fill="#000000" transform="translate(0,0)"/>
<path d="" fill="#000000" transform="translate(0,0)"/>
<path d="" fill="#000000" transform="translate(0,0)"/>
<path d="" fill="#000000" transform="translate(0,0)"/>
<path d="" fill="#000000" transform="translate(0,0)"/>
</svg>
